<?xml version="1.0" encoding="iso-8859-1"?>
<!-- Generator: Adobe Illustrator 19.0.0, SVG Export Plug-In . SVG Version: 6.00 Build 0)  -->
<svg version="1.1" id="Capa_1" xmlns="http://www.w3.org/2000/svg" xmlns:xlink="http://www.w3.org/1999/xlink" x="0px" y="0px"
	 viewBox="0 0 512.001 512.001" style="enable-background:new 0 0 512.001 512.001;" xml:space="preserve">
<path style="fill:#2D5872;" d="M313.706,437.969H53.08c-18.887,0-34.198,15.311-34.198,34.198v26.549
	c0,3.242,2.628,5.871,5.871,5.871h317.28c3.242,0,5.871-2.628,5.871-5.871v-26.549C347.904,453.28,332.593,437.969,313.706,437.969z
	"/>
<path style="fill:#1D4859;" d="M313.706,437.969h-11.259v15.689c0,13.57-11,24.57-24.57,24.57H24.753
	c-3.242,0-5.871-2.628-5.871-5.871v26.359c0,3.242,2.628,5.871,5.871,5.871h277.694h39.586c3.242,0,5.871-2.628,5.871-5.871v-26.359
	v-0.191C347.904,453.28,332.593,437.969,313.706,437.969z"/>
<rect x="262.582" y="161.325" transform="matrix(-0.7071 0.7071 -0.7071 -0.7071 667.3411 251.5856)" style="fill:#998675;" width="37.967" height="205.358"/>
<rect x="278.8" y="154.609" transform="matrix(-0.7071 0.7071 -0.7071 -0.7071 674.0747 235.3658)" style="fill:#927266;" width="18.984" height="205.358"/>
<path style="fill:#775146;" d="M489.124,443.94l-27.61,27.61c-5.323,5.323-13.953,5.323-19.275,0L323.661,352.972
	c-5.323-5.323-5.323-13.953,0-19.275l27.61-27.61c5.323-5.323,13.953-5.323,19.275,0l118.578,118.578
	C494.447,429.987,494.447,438.617,489.124,443.94z"/>
<rect x="74.973" y="103.185" transform="matrix(-0.7071 0.7071 -0.7071 -0.7071 430.3127 153.3968)" style="fill:#FF6D3A;" width="216.828" height="125.269"/>
<rect x="109.905" y="187.522" transform="matrix(-0.7071 0.7071 -0.7071 -0.7071 514.6489 188.3328)" style="fill:#ED5729;" width="216.828" height="26.463"/>
<path style="fill:#FFB125;" d="M168.792,302.05l-17.731,17.731c-5.937,5.937-15.564,5.937-21.501,0L29.431,219.653
	c-5.937-5.937-5.937-15.564,0-21.501l17.731-17.731c5.937-5.937,15.564-5.937,21.501,0l100.128,100.128
	C174.729,286.486,174.729,296.112,168.792,302.05z"/>
<path style="fill:#FF901D;" d="M337.356,133.486l-17.731,17.731c-5.937,5.937-15.564,5.937-21.501,0L197.995,51.089
	c-5.937-5.937-5.937-15.564,0-21.501l17.731-17.731c5.937-5.937,15.564-5.937,21.501,0l100.128,100.128
	C343.293,117.922,343.293,127.548,337.356,133.486z"/>
<path style="fill:#FFB125;" d="M275.445,189.209l-68.662,68.662c-5.209,5.209-13.654,5.209-18.863,0l-96.579-96.579
	c-5.209-5.209-5.209-13.654,0-18.863l68.662-68.662c5.209-5.209,13.654-5.209,18.863,0l96.579,96.579
	C280.654,175.555,280.654,184,275.445,189.209z"/>
<path style="fill:#6A463D;" d="M351.271,306.087l-13.805,13.805l137.853,137.853l13.805-13.805c5.323-5.323,5.323-13.953,0-19.275
	L370.547,306.087C365.224,300.764,356.594,300.764,351.271,306.087z"/>
<path style="fill:#FF901D;" d="M160.003,73.767l-22.851,22.851c0.827,0.521,1.613,1.132,2.334,1.852l68.229,68.229
	c7.168,7.168,7.168,18.789,0,25.956l-42.506,42.506l22.71,22.71l0.001,0.001c0.358,0.358,0.732,0.688,1.119,0.994
	c0.015,0.012,0.031,0.022,0.046,0.034c0.378,0.296,0.768,0.572,1.168,0.824c0.001,0.001,0.002,0.001,0.003,0.002
	c0.458,0.289,0.932,0.542,1.414,0.77c0.05,0.024,0.101,0.047,0.151,0.07c0.484,0.221,0.977,0.416,1.48,0.576
	c0.002,0.001,0.005,0.002,0.007,0.002c0.298,0.095,0.599,0.173,0.901,0.246c0.084,0.02,0.167,0.043,0.251,0.061
	c0.276,0.061,0.553,0.111,0.831,0.154c0.046,0.007,0.093,0.013,0.139,0.02c0.067,0.01,0.134,0.02,0.201,0.029
	c0.264,0.034,0.528,0.062,0.794,0.08c0.13,0.009,0.259,0.013,0.389,0.019c0.257,0.01,0.513,0.019,0.77,0.014
	c0.14-0.002,0.279-0.013,0.419-0.02c0.25-0.012,0.5-0.021,0.749-0.048c0.095-0.01,0.189-0.029,0.284-0.041
	c0.438-0.07,1.06-0.183,1.531-0.288c0.149-0.037,0.299-0.067,0.446-0.109c0.001,0,0.002,0,0.002-0.001
	c0.175-0.05,0.348-0.111,0.521-0.168c0.214-0.07,0.427-0.142,0.638-0.223c0.166-0.064,0.33-0.136,0.494-0.207
	c0.079-0.034,0.157-0.073,0.236-0.109c0.134-0.061,0.269-0.12,0.402-0.186c0.155-0.078,0.309-0.158,0.462-0.242
	c0.217-0.119,0.43-0.247,0.642-0.379c0.139-0.087,0.279-0.173,0.416-0.265c0.23-0.156,0.453-0.324,0.674-0.496
	c0.111-0.086,0.224-0.166,0.333-0.256c0.326-0.269,0.644-0.553,0.949-0.858l68.662-68.662c3.994-3.994,4.913-9.886,2.783-14.767
	c-0.648-1.485-1.568-2.88-2.783-4.095l-32.143-32.143l-64.437-64.437C173.657,68.558,165.212,68.558,160.003,73.767z"/>
<path d="M494.367,419.422L375.789,300.845c-3.975-3.975-9.259-6.164-14.88-6.164c-3.242,0-6.362,0.75-9.193,2.129l-86.694-86.694
	l15.665-15.665c7.671-7.671,8.055-19.896,1.18-28.041l10.483-10.482l0.531,0.532c4.409,4.409,10.201,6.614,15.993,6.614
	c5.792,0,11.583-2.204,15.993-6.614l17.731-17.731c8.818-8.818,8.818-23.167,0-31.985l-55.658-55.66
	c-2.896-2.895-7.589-2.895-10.485,0c-2.895,2.895-2.895,7.589,0,10.484l55.658,55.658c3.038,3.037,3.038,7.98,0,11.017
	l-17.731,17.731c-3.037,3.037-7.979,3.037-11.016,0l-5.773-5.773l0,0L253.302,95.91l-50.064-50.064
	c-3.038-3.037-3.038-7.98,0-11.017l17.731-17.731c3.037-3.036,7.98-3.037,11.017,0l11.799,11.799c2.896,2.895,7.59,2.896,10.484,0
	c2.896-2.895,2.896-7.589,0.001-10.484l-11.8-11.799c-8.82-8.819-23.169-8.818-31.987,0l-17.731,17.731
	c-8.818,8.818-8.818,23.167,0,31.985l0.531,0.531L182.804,67.34c-3.738-3.162-8.418-4.895-13.369-4.895
	c-5.544,0-10.754,2.159-14.674,6.078l-68.662,68.662c-7.671,7.672-8.055,19.897-1.18,28.041L74.437,175.71l-0.532-0.532
	c-8.817-8.817-23.166-8.817-31.985,0l-17.73,17.731c-4.272,4.272-6.625,9.952-6.625,15.993s2.352,11.721,6.624,15.992
	l100.128,100.128c4.409,4.409,10.201,6.614,15.994,6.614c5.792,0,11.583-2.205,15.993-6.614l17.731-17.731
	c8.818-8.818,8.818-23.167,0-31.985l-0.531-0.531l10.482-10.482c3.85,3.25,8.605,4.888,13.367,4.888
	c5.315,0,10.629-2.023,14.674-6.068l15.665-15.665l86.699,86.7c-3.801,7.842-2.472,17.566,4.029,24.067l118.578,118.578
	c4.102,4.102,9.491,6.153,14.88,6.153c5.388,0,10.777-2.051,14.88-6.153l27.61-27.61c3.974-3.975,6.163-9.259,6.163-14.88
	C500.53,428.681,498.341,423.397,494.367,419.422z M203.768,67.346l78.098,78.098l-10.42,10.419l-78.098-78.098L203.768,67.346z
	 M163.549,296.808l-17.731,17.731c-3.036,3.038-7.979,3.039-11.017,0L34.672,214.41c-1.471-1.471-2.281-3.427-2.281-5.508
	s0.81-4.037,2.282-5.508l17.73-17.731c1.519-1.519,3.514-2.278,5.509-2.278c1.994,0,3.99,0.759,5.508,2.278L163.549,285.79
	C166.587,288.828,166.587,293.77,163.549,296.808z M163.019,264.291l-39.049-39.049l-39.048-39.048l10.419-10.419l78.097,78.098
	L163.019,264.291z M201.541,252.629c-2.309,2.31-6.07,2.31-8.379,0l-3.99-3.99c-0.003-0.003-0.006-0.007-0.009-0.01l-88.581-88.581
	l0,0l-3.999-3.999c-2.31-2.31-2.31-6.069,0-8.379l68.662-68.662c1.119-1.119,2.606-1.736,4.189-1.736
	c1.582,0,3.071,0.616,4.189,1.736l3.994,3.994c0.002,0.002,0.003,0.003,0.004,0.005l88.581,88.582
	c0.002,0.002,0.004,0.003,0.005,0.005l3.994,3.994c2.31,2.31,2.31,6.069,0,8.379L201.541,252.629z M238.176,236.963l8.181-8.182
	l8.181-8.181l85.868,85.867l-16.364,16.363L238.176,236.963z M483.882,438.698l-27.61,27.61c-2.424,2.424-6.369,2.422-8.791,0
	L328.904,347.73c-2.424-2.424-2.424-6.368,0-8.792l13.805-13.805l13.424-13.423l0,0l0.381-0.381
	c1.174-1.174,2.735-1.821,4.396-1.821c1.66,0,3.221,0.647,4.395,1.821l118.578,118.577
	C486.306,432.33,486.306,436.274,483.882,438.698z"/>
<path d="M313.706,430.556H117.778c-4.095,0-7.413,3.319-7.413,7.413s3.319,7.413,7.413,7.413h195.929
	c14.769,0,26.785,12.015,26.785,26.785v25.006H26.297v-25.006c0-14.769,12.015-26.785,26.784-26.785h18.631
	c4.095,0,7.413-3.319,7.413-7.413s-3.319-7.413-7.413-7.413H53.08c-22.944,0-41.611,18.667-41.611,41.612v26.549
	c0,7.325,5.959,13.284,13.283,13.284h317.28c7.325,0,13.284-5.959,13.284-13.284v-26.549
	C355.318,449.222,336.651,430.556,313.706,430.556z"/>
<g>
</g>
<g>
</g>
<g>
</g>
<g>
</g>
<g>
</g>
<g>
</g>
<g>
</g>
<g>
</g>
<g>
</g>
<g>
</g>
<g>
</g>
<g>
</g>
<g>
</g>
<g>
</g>
<g>
</g>
</svg>
