<svg height="512" viewBox="0 0 512 512" width="512" xmlns="http://www.w3.org/2000/svg" xmlns:xlink="http://www.w3.org/1999/xlink"><linearGradient id="New_Gradient_Swatch_12" gradientUnits="userSpaceOnUse" x1="204" x2="308" y1="492" y2="388"><stop offset="0" stop-color="#c7bdbd"/><stop offset="1" stop-color="#f1eeee"/></linearGradient><linearGradient id="New_Gradient_Swatch_4" gradientUnits="userSpaceOnUse" x1="208" x2="304" y1="544" y2="448"><stop offset="0" stop-color="#9d8b8b"/><stop offset="1" stop-color="#b9acac"/></linearGradient><linearGradient id="New_Gradient_Swatch_5" gradientUnits="userSpaceOnUse" x1="44.686" x2="467.314" y1="419.314" y2="-3.314"><stop offset="0" stop-color="#e3dede"/><stop offset="1" stop-color="#fff"/></linearGradient><linearGradient id="New_Gradient_Swatch_4-2" x1="118.343" x2="537.14" xlink:href="#New_Gradient_Swatch_4" y1="492.971" y2="74.174"/><linearGradient id="New_Gradient_Swatch_12-2" x1="289" x2="321" xlink:href="#New_Gradient_Swatch_12" y1="240" y2="240"/><linearGradient id="New_Gradient_Swatch_12-3" x1="160" x2="192" xlink:href="#New_Gradient_Swatch_12" y1="240" y2="240"/><linearGradient id="New_Gradient_Swatch_10" gradientUnits="userSpaceOnUse" x1="283" x2="389" y1="224" y2="224"><stop offset="0" stop-color="#72c2c8"/><stop offset="1" stop-color="#b8e1e3"/></linearGradient><g id="_06-cart" data-name="06-cart"><g id="linear_color-2" data-name="linear color"><path d="m304 496h-96l16-128h64z" fill="url(#New_Gradient_Swatch_12)"/><path d="m352 496s-48-32-96-32-96 32-96 32z" fill="url(#New_Gradient_Swatch_4)"/><rect fill="url(#New_Gradient_Swatch_5)" height="384" rx="16" width="480" x="16" y="16"/><path d="m16 320v64a16 16 0 0 0 16 16h448a16 16 0 0 0 16-16v-64z" fill="url(#New_Gradient_Swatch_4-2)"/><circle cx="305" cy="240" fill="url(#New_Gradient_Swatch_12-2)" r="16"/><circle cx="176" cy="240" fill="url(#New_Gradient_Swatch_12-3)" r="16"/><circle cx="336" cy="224" fill="url(#New_Gradient_Swatch_10)" r="53"/><path d="m480 6h-448a26.03 26.03 0 0 0 -26 26v352a26.03 26.03 0 0 0 26 26h176.671l-6.806 54.431a238.492 238.492 0 0 0 -47.412 23.249 10 10 0 0 0 5.547 18.32h192a10 10 0 0 0 5.547-18.32 238.492 238.492 0 0 0 -47.412-23.249l-6.806-54.431h176.671a26.03 26.03 0 0 0 26-26v-352a26.03 26.03 0 0 0 -26-26zm-448 20h448a6.006 6.006 0 0 1 6 6v278h-460v-278a6.006 6.006 0 0 1 6-6zm176 460h-6.526c15.893-6.393 35.309-12 54.526-12 19.148 0 38.556 5.607 54.459 12zm81.2-27.84a134.521 134.521 0 0 0 -66.39 0l6.017-48.16h54.346zm196.8-74.16a6.006 6.006 0 0 1 -6 6h-448a6.006 6.006 0 0 1 -6-6v-54h460z"/><path d="m240 370h32a10 10 0 0 0 0-20h-32a10 10 0 0 0 0 20z"/><path d="m104 74h24.792l45.721 137.162a9.969 9.969 0 0 0 1.487 2.838 26.036 26.036 0 1 0 13.831 4h83.462c-.188 1.976-.293 3.976-.293 6a63 63 0 1 0 63-63c-1.987 0-3.949.1-5.89.284l15.377-46.121a10 10 0 0 0 -9.487-13.163h-128a10 10 0 0 0 0 20h114.125l-9.348 28.039c-.257-.02-.515-.039-.777-.039h-88a10 10 0 0 0 0 20h79.589a63.409 63.409 0 0 0 -24.951 28h-87.43l-45.721-137.162a10 10 0 0 0 -9.487-6.838h-32a10 10 0 0 0 0 20zm72 172a6 6 0 1 1 6-6 6.006 6.006 0 0 1 -6 6zm203-22a43 43 0 1 1 -43-43 43.049 43.049 0 0 1 43 43z"/><path d="m315.528 232.944 16 8a10 10 0 0 0 12.792-3.4l16-24a10 10 0 0 0 -16.64-11.094l-11.1 16.655-8.1-4.052a10 10 0 0 0 -8.944 17.888z"/></g></g></svg>