<svg id="Capa_1" enable-background="new 0 0 512 512" height="512" viewBox="0 0 512 512" width="512" xmlns="http://www.w3.org/2000/svg"><g><g><path d="m235.756 200.836h40.489v174.101h-40.489z" fill="#e49542"/></g><g><path d="m276.244 200.836h40.489v174.101h-40.489z" fill="#f6e266"/></g><g><path d="m195.267 200.836h40.489v174.101h-40.489z" fill="#f6e266" transform="matrix(-1 0 0 -1 431.023 575.772)"/></g><g><path d="m286.366 258.021.546.287c7.949 4.179 16.445 6.298 25.25 6.298 1.533 0 3.057-.073 4.571-.202v-63.568h-40.489v51.863z" fill="#f1d333"/></g><g><path d="m225.634 258.021-.546.287c-7.949 4.179-16.445 6.298-25.25 6.298-1.533 0-3.057-.073-4.571-.202v-63.568h40.489v51.863z" fill="#f1d333"/></g><g><path d="m253.367 243.441c.809-.425 1.719-.65 2.633-.65s1.825.225 2.635.651l17.609 9.258v-51.863h-40.489v51.863z" fill="#e28424"/></g><g><path d="m282.863 24.201 14.138 28.647c4.363 8.841 12.798 14.969 22.555 16.387l31.614 4.594c24.57 3.57 34.381 33.765 16.602 51.096l-22.876 22.299c-7.06 6.882-10.282 16.797-8.615 26.515l5.4 31.487c4.197 24.471-21.488 43.133-43.465 31.579l-28.277-14.866c-8.727-4.588-19.153-4.588-27.879 0l-28.277 14.866c-21.977 11.554-47.662-7.108-43.465-31.579l5.4-31.487c1.667-9.718-1.555-19.633-8.615-26.515l-22.876-22.299c-17.779-17.331-7.968-47.525 16.602-51.096l31.614-4.594c9.757-1.418 18.192-7.546 22.555-16.387l14.138-28.647c10.99-22.264 42.738-22.264 53.727 0z" fill="#f6e266"/></g><g><path d="m168.95 374.937h174.101v97.173h-174.101z" fill="#4073c8"/></g><g><path d="m239.805 368.863h32.391v109.319h-32.391z" fill="#f6e266" transform="matrix(0 1 -1 0 679.523 167.523)"/></g><g><path d="m154.779 472.109h202.443v32.391h-202.443z" fill="#30579d"/></g><g><path d="m373.004 130.293c10.284-10.024 13.917-24.735 9.479-38.392-4.438-13.658-16.023-23.425-30.234-25.49l-31.618-4.601c-7.315-1.058-13.636-5.646-16.906-12.277l-14.14-28.649c-6.356-12.881-19.226-20.884-33.585-20.884s-27.229 8.003-33.586 20.884l-14.143 28.658c-1.136 2.309-2.658 4.395-4.524 6.2-2.978 2.879-3.057 7.627-.177 10.604 2.877 2.977 7.626 3.056 10.604.177 3.113-3.011 5.655-6.496 7.552-10.352l14.14-28.649c3.868-7.84 11.396-12.522 20.134-12.522s16.266 4.682 20.135 12.522l14.139 28.647c5.457 11.063 16.004 18.723 28.206 20.485l31.612 4.6c8.649 1.257 15.426 6.97 18.127 15.281 2.7 8.31.575 16.915-5.686 23.016l-22.867 22.298c-8.836 8.611-12.865 21.008-10.777 33.16l5.399 31.48c1.478 8.62-1.861 16.833-8.936 21.972-7.069 5.134-15.907 5.771-23.644 1.7l-28.277-14.858c-10.915-5.738-23.948-5.738-34.859-.001l-28.283 14.861c-7.733 4.068-16.57 3.431-23.64-1.702-7.074-5.139-10.414-13.351-8.936-21.973l5.399-31.477c2.088-12.154-1.941-24.551-10.775-33.16l-22.87-22.301c-6.26-6.101-8.385-14.705-5.685-23.015 2.701-8.311 9.477-14.024 18.13-15.281l15.1-2.2c4.1-.598 6.937-4.404 6.341-8.503-.598-4.1-4.411-6.929-8.503-6.341l-15.097 2.2c-14.213 2.065-25.799 11.832-30.236 25.49-4.437 13.657-.805 28.368 9.478 38.391l22.871 22.301c5.299 5.163 7.714 12.595 6.463 19.882l-5.399 31.478c-2.43 14.161 3.281 28.203 14.903 36.644 3.099 2.251 6.451 3.96 9.935 5.157v121.682h-18.818c-4.143 0-7.5 3.357-7.5 7.5v89.674h-6.669c-4.143 0-7.5 3.357-7.5 7.5v32.391c0 4.143 3.357 7.5 7.5 7.5h202.438c4.143 0 7.5-3.357 7.5-7.5v-32.389c0-4.143-3.357-7.5-7.5-7.5h-6.669v-89.674c0-4.143-3.357-7.5-7.5-7.5h-18.82v-42.315c0-4.143-3.357-7.5-7.5-7.5s-7.5 3.357-7.5 7.5v42.315h-25.486v-129.769l10.983 5.771c4.611 2.426 9.54 3.815 14.503 4.214v42.469c0 4.143 3.357 7.5 7.5 7.5s7.5-3.357 7.5-7.5v-44.364c3.485-1.197 6.838-2.908 9.937-5.16 11.622-8.441 17.333-22.483 14.903-36.643l-5.399-31.481c-1.251-7.285 1.164-14.717 6.465-19.881zm-170.237 117.36c4.963-.399 9.892-1.786 14.502-4.212l10.987-5.773v129.769h-25.489zm132.783 216.958h-116.71c-4.143 0-7.5 3.357-7.5 7.5s3.357 7.5 7.5 7.5h130.879v17.389h-187.438v-17.39h21.559c4.143 0 7.5-3.357 7.5-7.5s-3.357-7.5-7.5-7.5h-7.391v-82.174h159.101zm-66.806-97.175h-25.488v-137.65l2.294-1.205c6.546-3.441 14.356-3.441 20.902.001l2.292 1.204z"/><path d="m310.66 399.828h-109.32c-4.143 0-7.5 3.357-7.5 7.5v32.39c0 4.143 3.357 7.5 7.5 7.5h109.32c4.143 0 7.5-3.357 7.5-7.5v-32.39c0-4.143-3.358-7.5-7.5-7.5zm-7.5 32.39h-94.32v-17.391h94.32z"/></g></g></svg>