<svg height="512" viewBox="0 0 64 64" width="512" xmlns="http://www.w3.org/2000/svg"><g id="computer-shield-protect-protection-security"><path d="m61 39v4a4 4 0 0 1 -4 4h-50a4 4 0 0 1 -4-4v-4z" fill="#898890"/><path d="m61 7v32h-58v-32a4 4 0 0 1 4-4h50a4 4 0 0 1 4 4z" fill="#46f8ff"/><path d="m61 39v4a4 4 0 0 1 -4 4h-5a4 4 0 0 0 4-4v-4z" fill="#787680"/><path d="m61 7v32h-5v-32a4 4 0 0 0 -4-4h5a4 4 0 0 1 4 4z" fill="#00e7f0"/><path d="m46 57v4h-28v-4a2.006 2.006 0 0 1 2-2h24a2.006 2.006 0 0 1 2 2z" fill="#898890"/><path d="m46 57v4h-4v-4a2.006 2.006 0 0 0 -2-2h4a2.006 2.006 0 0 1 2 2z" fill="#787680"/><path d="m43 11v8.69a12 12 0 0 1 -3.93 8.88l-7.07 6.43-7.07-6.43a12 12 0 0 1 -3.93-8.88v-8.69l11-4z" fill="#ffde55"/><path d="m43 11v8.69a12 12 0 0 1 -3.93 8.88l-7.07 6.43-2-1.82 5.07-4.61a12 12 0 0 0 3.93-8.88v-8.69l-9-3.27 2-.73z" fill="#ebbf00"/><path d="m27 47h10v8h-10z" fill="#c6c5ca"/><path d="m33 47h4v8h-4z" fill="#acabb1"/><path d="m57 2h-50a5 5 0 0 0 -5 5v36a5 5 0 0 0 5 5h19v6h-6a3.009 3.009 0 0 0 -3 3v4a1 1 0 0 0 1 1h28a1 1 0 0 0 1-1v-4a3.009 3.009 0 0 0 -3-3h-6v-6h19a5 5 0 0 0 5-5v-36a5 5 0 0 0 -5-5zm-13 54a1 1 0 0 1 1 1v3h-26v-3a1 1 0 0 1 1-1zm-16-2v-6h8v6zm32-11a3.009 3.009 0 0 1 -3 3h-50a3.009 3.009 0 0 1 -3-3v-3h56zm0-5h-56v-31a3.009 3.009 0 0 1 3-3h50a3.009 3.009 0 0 1 3 3z"/><path d="m54 42h2v2h-2z"/><path d="m50 42h2v2h-2z"/><path d="m43.34 10.06-11-4a.993.993 0 0 0 -.68 0l-11 4a.992.992 0 0 0 -.66.94v8.69a13.032 13.032 0 0 0 4.25 9.62l7.08 6.43a.993.993 0 0 0 1.34 0l7.08-6.43a13.032 13.032 0 0 0 4.25-9.62v-8.69a.992.992 0 0 0 -.66-.94zm-1.34 9.63a11.02 11.02 0 0 1 -3.6 8.14l-6.4 5.82-6.4-5.82a11.02 11.02 0 0 1 -3.6-8.14v-7.99l10-3.64 10 3.64z"/><path d="m31 25a1 1 0 0 0 .707-.293l7-7-1.414-1.414-6.293 6.293-3.293-3.293-1.414 1.414 4 4a1 1 0 0 0 .707.293z"/><path d="m8 8h10v2h-10z"/><path d="m8 14h10v2h-10z"/><path d="m8 20h10v2h-10z"/><path d="m8 26h10v2h-10z"/><path d="m8 32h10v2h-10z"/><path d="m46 8h10v2h-10z"/><path d="m46 14h10v2h-10z"/><path d="m46 20h10v2h-10z"/><path d="m46 26h10v2h-10z"/><path d="m46 32h10v2h-10z"/></g></svg>