<svg id="building-pin-locations" height="512" viewBox="0 0 64 64" width="512" xmlns="http://www.w3.org/2000/svg"><path d="m6 49h40v3h-40z" fill="#3e3d42"/><path d="m9 7h40v42h-40z" fill="#e0e0e2"/><g fill="#2488ff"><path d="m13 11h6v8h-6z"/><path d="m26 11h6v8h-6z"/><path d="m39 11h6v8h-6z"/><path d="m39 23h6v8h-6z"/></g><path d="m52 3v4h-3-40-3v-4z" fill="#3e3d42"/><path d="m34 43v6h-10v-6a5 5 0 1 1 10 0z" fill="#b39a7c"/><path d="m26 23h6v8h-6z" fill="#2488ff"/><path d="m13 23h6v8h-6z" fill="#2488ff"/><ellipse cx="48" cy="58.5" fill="#d80027" rx="7" ry="2.5"/><path d="m58 41c0 5.523-10 17-10 17s-10-11.477-10-17a10 10 0 0 1 20 0z" fill="#ff5023"/><circle cx="48" cy="41" fill="#ffda44" r="4"/><path d="m43 41a5 5 0 1 0 5-5 5.006 5.006 0 0 0 -5 5zm8 0a3 3 0 1 1 -3-3 3 3 0 0 1 3 3z"/><path d="m51.48 55.31c3.04-3.92 7.52-10.37 7.52-14.31a11.021 11.021 0 0 0 -9-10.81v-22.19h2a1 1 0 0 0 1-1v-4a1 1 0 0 0 -1-1h-46a1 1 0 0 0 -1 1v4a1 1 0 0 0 1 1h2v40h-2a1 1 0 0 0 -1 1v3a1 1 0 0 0 1 1h36.79c.6.83 1.19 1.61 1.73 2.31-2.41.46-4.52 1.46-4.52 3.19 0 2.4 4.15 3.5 8 3.5s8-1.1 8-3.5c0-1.73-2.11-2.73-4.52-3.19zm-44.48-49.31v-2h44v2zm38 16h-6a1 1 0 0 0 -1 1v7h-1v2h4.7a10.976 10.976 0 0 0 -4.7 9c0 1.93 1.08 4.46 2.53 7h-4.53v-5a6 6 0 0 0 -12 0v5h-13v-40h38v22a11.023 11.023 0 0 0 -2 .19v-7.19a1 1 0 0 0 -1-1zm-1 2v6h-4v-6zm-11 19v5h-8v-5a4 4 0 0 1 8 0zm-26 8v-1h33.74c.22.34.44.67.66 1zm32-10a9 9 0 0 1 18 0c0 3.87-5.93 11.77-9 15.46-3.07-3.69-9-11.59-9-15.46zm9 19c-3.84 0-5.88-1.1-6-1.48.09-.31 1.37-1.1 3.96-1.39.71.87 1.2 1.43 1.29 1.53a1 1 0 0 0 1.5 0c.09-.1.58-.66 1.29-1.53 2.59.29 3.87 1.08 3.96 1.35-.12.42-2.16 1.52-6 1.52z"/><path d="m46 18v-7a1 1 0 0 0 -1-1h-6a1 1 0 0 0 -1 1v7h-1v2h10v-2zm-2 0h-4v-6h4z"/><path d="m33 18v-7a1 1 0 0 0 -1-1h-6a1 1 0 0 0 -1 1v7h-1v2h10v-2zm-2 0h-4v-6h4z"/><path d="m20 18v-7a1 1 0 0 0 -1-1h-6a1 1 0 0 0 -1 1v7h-1v2h10v-2zm-2 0h-4v-6h4z"/><path d="m20 30v-7a1 1 0 0 0 -1-1h-6a1 1 0 0 0 -1 1v7h-1v2h10v-2zm-2 0h-4v-6h4z"/><path d="m33 30v-7a1 1 0 0 0 -1-1h-6a1 1 0 0 0 -1 1v7h-1v2h10v-2zm-2 0h-4v-6h4z"/></svg>